<?xml version="1.0" encoding="UTF-8"?>
<svg xmlns="http://www.w3.org/2000/svg" xmlns:xlink="http://www.w3.org/1999/xlink" width="1200" height="800" viewBox="0 0 378 378" version="1.1">
<g id="surface1">
<path style=" stroke:none;fill-rule:evenodd;fill:rgb(54.899597%,20.399475%,57.598877%);fill-opacity:1;" d="M 0 253.050781 L 378 253.050781 L 378 0 L 0 0 Z M 0 253.050781 "/>
<path style=" stroke:none;fill-rule:evenodd;fill:rgb(100%,100%,100%);fill-opacity:1;" d="M 263.394531 41.109375 L 218.507813 85.996094 L 221.65625 111.199219 L 229.929688 93.871094 L 255.519531 126.554688 L 291.351563 16.304688 L 172.042969 65.917969 L 204.335938 82.847656 L 263.394531 41.109375 "/>
<path style=" stroke:none;fill-rule:nonzero;fill:rgb(100%,100%,100%);fill-opacity:1;" d="M 207.101563 167.109375 C 207.101563 167.109375 182.6875 167.109375 180.71875 167.109375 C 164.378906 168.09375 159.0625 141.125 179.144531 137.578125 C 185.050781 137.578125 207.101563 137.578125 207.101563 137.578125 Z M 224.414063 119.859375 C 224.414063 119.859375 186.414063 119.859375 177.164063 119.859375 C 141.132813 125.375 137.394531 177.742188 176.769531 184.832031 L 224.414063 184.832031 L 224.414063 137.578125 C 240.296875 138.105469 243.578125 157.921875 231.894531 165.140625 C 234.257813 167.898438 243.710938 178.136719 243.710938 178.136719 C 268.515625 156.742188 254.339844 121.566406 224.414063 119.859375 "/>
<path style=" stroke:none;fill-rule:evenodd;fill:rgb(100%,100%,100%);fill-opacity:1;" d="M 323.246094 143.484375 C 315.371094 143.484375 305.921875 143.484375 305.921875 143.484375 L 298.4375 160.8125 C 298.4375 160.8125 318.519531 160.8125 320.488281 160.8125 C 324.921875 160.613281 325.117188 167.109375 320.488281 167.503906 C 314.78125 167.503906 282.296875 167.503906 282.296875 167.503906 L 282.296875 137.578125 L 340.964844 137.578125 L 340.964844 119.859375 C 340.964844 119.859375 332.796875 119.859375 332.304688 119.859375 C 329.742188 83.242188 285.9375 82.160156 274.421875 102.144531 C 276.6875 104.011719 287.414063 113.5625 287.414063 113.5625 C 294.011719 103.226563 312.320313 103.71875 314.976563 119.859375 L 264.972656 119.859375 L 264.972656 184.832031 L 321.277344 184.832031 C 334.074219 184.632813 339.980469 175.183594 341.359375 167.109375 C 342.144531 154.117188 334.269531 145.453125 323.246094 143.484375 "/>
<path style=" stroke:none;fill-rule:evenodd;fill:rgb(100%,100%,100%);fill-opacity:1;" d="M 154.71875 119.859375 L 131.882813 119.859375 C 124.597656 128.71875 111.996094 164.550781 137 191.523438 C 137 191.523438 147.828125 182.269531 149.992188 180.5 C 142.316406 173.015625 129.519531 142.5 154.71875 119.859375 "/>
<path style=" stroke:none;fill-rule:evenodd;fill:rgb(100%,100%,100%);fill-opacity:1;" d="M 96.589844 192.148438 C 96.589844 200.054688 90.179688 206.460938 82.273438 206.460938 C 74.367188 206.460938 67.960938 200.054688 67.960938 192.148438 C 67.960938 184.242188 74.367188 177.832031 82.273438 177.832031 C 90.179688 177.832031 96.589844 184.242188 96.589844 192.148438 "/>
<path style=" stroke:none;fill-rule:evenodd;fill:rgb(100%,100%,100%);fill-opacity:1;" d="M 96.050781 167.109375 C 96.050781 167.109375 71.636719 167.109375 69.667969 167.109375 C 53.328125 168.09375 48.011719 141.125 68.09375 137.578125 C 74 137.578125 96.050781 137.578125 96.050781 137.578125 Z M 66.125 119.859375 C 30.097656 125.375 26.355469 177.742188 65.730469 184.832031 L 65.992188 184.832031 C 68.789063 178.621094 75.023438 174.296875 82.273438 174.296875 C 89.523438 174.296875 95.757813 178.621094 98.550781 184.832031 L 113.375 184.832031 C 113.375 182.664063 113.375 119.859375 113.375 119.859375 C 113.375 119.859375 75.378906 119.859375 66.125 119.859375 "/>
<path style=" stroke:none;fill-rule:evenodd;fill:rgb(100%,100%,100%);fill-opacity:1;" d="M 82.3125 96.503906 C 82.3125 97.324219 81.644531 97.992188 80.824219 97.992188 L 73.289063 97.992188 L 73.289063 94.847656 L 80.824219 94.847656 C 81.644531 94.847656 82.3125 95.515625 82.3125 96.335938 Z M 83.0625 104.503906 C 88.863281 103.519531 91.71875 91.609375 82.269531 88.953125 C 81.1875 88.953125 66.914063 88.953125 66.914063 88.953125 L 66.914063 111.59375 L 73.210938 111.59375 L 73.210938 104.503906 L 80.300781 111.59375 L 90.148438 111.59375 L 83.0625 104.503906 "/>
<path style=" stroke:none;fill-rule:evenodd;fill:rgb(100%,100%,100%);fill-opacity:1;" d="M 101.113281 105.109375 C 98.328125 105.109375 96.070313 102.851563 96.070313 100.066406 C 96.070313 97.28125 98.328125 95.023438 101.113281 95.023438 C 103.898438 95.023438 106.15625 97.28125 106.15625 100.066406 C 106.15625 102.851563 103.898438 105.109375 101.113281 105.109375 Z M 101.113281 88.59375 C 94.777344 88.59375 89.640625 93.730469 89.640625 100.066406 C 89.640625 106.402344 94.777344 111.539063 101.113281 111.539063 C 107.449219 111.539063 112.585938 106.402344 112.585938 100.066406 C 112.585938 93.730469 107.449219 88.59375 101.113281 88.59375 "/>
<path style=" stroke:none;fill-rule:evenodd;fill:rgb(100%,100%,100%);fill-opacity:1;" d="M 166.199219 95.113281 L 176.511719 95.113281 L 176.511719 88.460938 L 167.785156 88.460938 C 160.925781 88.460938 155.3125 93.640625 155.3125 99.96875 C 155.3125 106.296875 160.925781 111.476563 167.785156 111.476563 L 176.511719 111.476563 L 176.511719 104.824219 L 166.199219 104.824219 C 164.6875 104.824219 163.339844 104.101563 162.472656 102.988281 L 176.511719 102.988281 L 176.511719 96.949219 L 162.472656 96.949219 C 163.339844 95.835938 164.6875 95.113281 166.199219 95.113281 "/>
<path style=" stroke:none;fill-rule:evenodd;fill:rgb(100%,100%,100%);fill-opacity:1;" d="M 125.210938 104.824219 C 122.613281 104.824219 120.488281 102.699219 120.488281 100.101563 L 120.488281 99.835938 C 120.488281 97.238281 122.613281 95.113281 125.210938 95.113281 L 135.011719 95.113281 L 135.011719 88.460938 L 126.222656 88.460938 C 119.363281 88.460938 113.75 93.640625 113.75 99.96875 C 113.75 106.296875 119.363281 111.476563 126.222656 111.476563 L 135.011719 111.476563 L 135.011719 104.824219 L 125.210938 104.824219 "/>
<path style=" stroke:none;fill-rule:evenodd;fill:rgb(100%,100%,100%);fill-opacity:1;" d="M 200.460938 88.898438 L 178.238281 88.898438 L 178.238281 94.851563 L 186.375 94.851563 L 186.375 111.125 L 192.324219 111.125 L 192.324219 94.851563 L 200.460938 94.851563 L 200.460938 88.898438 "/>
<path style=" stroke:none;fill-rule:nonzero;fill:rgb(100%,100%,100%);fill-opacity:1;" d="M 147.566406 99.925781 L 158.503906 88.898438 L 149.652344 88.898438 L 143.5 95.101563 L 143.5 88.898438 L 137.550781 88.898438 L 137.550781 111.125 L 143.5 111.125 L 143.5 104.753906 L 149.820313 111.125 L 158.675781 111.125 L 147.566406 99.925781 "/>
<path style=" stroke:none;fill-rule:nonzero;fill:rgb(100%,100%,100%);fill-opacity:1;" d="M 237.054688 195.847656 C 236.070313 196.042969 235.207031 196.660156 234.460938 197.699219 C 233.742188 198.6875 233.386719 199.6875 233.386719 200.703125 C 233.386719 201.3125 233.511719 201.90625 233.765625 202.476563 C 234.082031 203.207031 234.515625 203.566406 235.0625 203.566406 C 235.339844 203.566406 235.699219 203.417969 236.140625 203.117188 L 236.757813 204.769531 C 236.199219 205.105469 235.65625 205.273438 235.128906 205.273438 C 234.414063 205.273438 233.726563 205.007813 233.0625 204.476563 C 232.679688 204.167969 232.3125 203.578125 231.96875 202.707031 C 231.796875 202.28125 231.710938 201.636719 231.710938 200.78125 L 231.710938 200.179688 C 231.710938 198.832031 232.425781 197.316406 233.855469 195.628906 C 234.160156 195.28125 234.671875 194.785156 235.386719 194.152344 L 237.632813 194.152344 L 237.632813 195.789063 C 237.421875 195.816406 237.226563 195.835938 237.054688 195.847656 "/>
<path style=" stroke:none;fill-rule:nonzero;fill:rgb(100%,100%,100%);fill-opacity:1;" d="M 245.132813 195.792969 L 240.730469 195.792969 C 241.976563 196.597656 242.621094 197.652344 242.675781 198.953125 C 243.46875 199.265625 244.289063 199.882813 245.132813 200.808594 Z M 247.003906 195.792969 L 247.003906 205.144531 L 245.132813 205.144531 L 245.132813 203.9375 C 245.132813 203.519531 244.816406 202.988281 244.183594 202.339844 C 243.707031 201.847656 243.207031 201.417969 242.679688 201.054688 C 242.097656 200.652344 241.464844 200.453125 240.777344 200.453125 C 240.078125 200.453125 239.570313 200.75 239.253906 201.351563 C 239.214844 201.417969 239.195313 201.5 239.195313 201.605469 C 239.195313 201.855469 239.316406 202.078125 239.5625 202.28125 C 239.804688 202.484375 240.050781 202.582031 240.304688 202.582031 C 240.5 202.582031 240.976563 202.4375 241.730469 202.148438 L 242.28125 203.847656 C 241.445313 204.273438 240.753906 204.488281 240.195313 204.488281 C 239.570313 204.488281 239.003906 204.3125 238.484375 203.964844 C 237.96875 203.613281 237.589844 203.15625 237.351563 202.585938 C 237.246094 202.339844 237.191406 202.039063 237.191406 201.675781 C 237.191406 200.617188 237.632813 199.808594 238.507813 199.25 C 239.117188 198.851563 239.769531 198.648438 240.460938 198.648438 C 240.523438 198.648438 240.585938 198.648438 240.640625 198.648438 C 240.625 198.324219 240.453125 197.957031 240.121094 197.546875 C 239.789063 197.144531 239.464844 196.941406 239.144531 196.941406 L 237.074219 196.941406 L 237.074219 195.792969 L 236.242188 195.792969 L 236.242188 194.152344 L 248.28125 194.152344 L 248.28125 195.792969 L 247.003906 195.792969 "/>
<path style=" stroke:none;fill-rule:nonzero;fill:rgb(100%,100%,100%);fill-opacity:1;" d="M 250.644531 195.792969 L 250.644531 205.144531 L 248.773438 205.144531 L 248.773438 195.792969 L 247.394531 195.792969 L 247.394531 194.152344 L 251.890625 194.152344 L 251.890625 195.792969 L 250.644531 195.792969 "/>
<path style=" stroke:none;fill-rule:nonzero;fill:rgb(100%,100%,100%);fill-opacity:1;" d="M 259.769531 197.816406 C 259.421875 197.933594 259.050781 198.066406 258.648438 198.222656 C 258.0625 198.480469 256.996094 198.949219 255.449219 199.621094 L 255.09375 199.777344 C 256.570313 200.292969 257.980469 201.058594 259.328125 202.070313 C 259.5 202.199219 259.648438 202.308594 259.769531 202.398438 Z M 259.660156 195.792969 L 251.234375 195.792969 L 251.234375 194.152344 L 262.898438 194.152344 L 262.898438 195.792969 L 261.605469 195.792969 L 261.605469 205.144531 L 259.953125 205.144531 C 259.792969 204.664063 258.984375 203.917969 257.523438 202.910156 C 256.929688 202.5 256.105469 202.097656 255.058594 201.710938 C 253.941406 201.292969 253.054688 201.089844 252.390625 201.089844 L 251.894531 199.226563 C 252.328125 198.875 253.535156 198.273438 255.507813 197.421875 C 256.34375 197.058594 257.726563 196.515625 259.660156 195.792969 "/>
<path style=" stroke:none;fill-rule:nonzero;fill:rgb(100%,100%,100%);fill-opacity:1;" d="M 265.246094 195.792969 L 265.246094 205.144531 L 263.378906 205.144531 L 263.378906 195.792969 L 262 195.792969 L 262 194.152344 L 266.492188 194.152344 L 266.492188 195.792969 L 265.246094 195.792969 "/>
<path style=" stroke:none;fill-rule:nonzero;fill:rgb(100%,100%,100%);fill-opacity:1;" d="M 272.339844 206.71875 C 271.582031 206.03125 270.773438 205.394531 269.914063 204.796875 C 269.503906 204.515625 268.820313 204.199219 267.867188 203.851563 C 267.113281 203.578125 266.667969 203.441406 266.535156 203.441406 L 266.558594 201.253906 C 266.714844 201.253906 266.957031 201.261719 267.28125 201.28125 C 267.605469 201.300781 267.847656 201.3125 268.007813 201.3125 C 268.855469 201.3125 269.542969 201.203125 270.074219 200.984375 C 271.078125 200.5625 271.582031 200.066406 271.582031 199.492188 C 271.582031 199.070313 271.390625 198.71875 271.007813 198.4375 C 270.636719 198.21875 270.257813 198.007813 269.875 197.804688 C 269.769531 197.753906 269.660156 197.726563 269.558594 197.726563 C 269.332031 197.726563 269.085938 197.785156 268.820313 197.898438 C 268.488281 198.054688 268.339844 198.226563 268.363281 198.417969 C 268.429688 198.902344 268.941406 199.105469 269.894531 199.03125 L 268.882813 200.582031 C 268.472656 200.609375 268.054688 200.480469 267.628906 200.195313 C 266.859375 199.675781 266.476563 199.042969 266.476563 198.292969 C 266.476563 197.542969 266.867188 196.960938 267.648438 196.542969 C 268.285156 196.195313 269.015625 196.019531 269.835938 196.019531 C 270.191406 196.019531 270.503906 196.082031 270.761719 196.195313 C 271.019531 196.3125 271.28125 196.441406 271.546875 196.582031 C 272.816406 197.230469 273.453125 198.210938 273.453125 199.527344 C 273.453125 200.472656 273.0625 201.234375 272.28125 201.816406 C 271.683594 202.253906 270.828125 202.570313 269.714844 202.765625 C 270.046875 202.917969 270.523438 203.183594 271.144531 203.558594 C 272.207031 204.359375 273.0625 205.078125 273.710938 205.710938 Z M 265.839844 195.792969 L 265.839844 194.152344 L 271.363281 194.152344 C 271.378906 194.085938 271.386719 194.039063 271.386719 194.015625 C 271.386719 193.15625 270.980469 192.59375 270.171875 192.320313 C 270.066406 192.292969 269.945313 192.28125 269.8125 192.28125 C 269.613281 192.28125 269.371094 192.320313 269.078125 192.398438 C 268.683594 192.503906 268.441406 192.5625 268.363281 192.578125 C 268.046875 192.628906 267.769531 192.726563 267.53125 192.871094 C 267.226563 193.082031 266.875 193.273438 266.476563 193.445313 L 265.882813 192.058594 C 266.597656 191.5625 267.535156 191.140625 268.703125 190.789063 C 269.191406 190.644531 269.65625 190.574219 270.09375 190.574219 C 270.558594 190.574219 271.078125 190.742188 271.664063 191.082031 C 272.65625 191.675781 273.171875 192.699219 273.214844 194.152344 L 274.285156 194.152344 L 274.285156 195.792969 L 265.839844 195.792969 "/>
<path style=" stroke:none;fill-rule:nonzero;fill:rgb(100%,100%,100%);fill-opacity:1;" d="M 285.472656 195.792969 L 285.472656 205.144531 L 283.605469 205.144531 L 283.605469 201.433594 C 283.605469 201.109375 283.464844 200.78125 283.1875 200.4375 C 282.910156 200.097656 282.613281 199.925781 282.296875 199.925781 C 282.003906 199.925781 281.726563 200.105469 281.460938 200.464844 C 281.195313 200.828125 281.066406 201.234375 281.066406 201.699219 L 279.042969 201.699219 C 279.042969 201.179688 278.910156 200.734375 278.644531 200.359375 C 278.375 199.984375 278.070313 199.792969 277.722656 199.792969 C 277.429688 199.792969 277.148438 199.898438 276.882813 200.105469 C 276.617188 200.3125 276.472656 200.554688 276.445313 200.828125 L 276.386719 201.3125 L 276.386719 201.503906 C 276.386719 202.464844 276.972656 202.945313 278.148438 202.945313 C 278.335938 202.945313 278.652344 202.90625 279.101563 202.828125 L 278.445313 204.714844 C 278.0625 204.761719 277.828125 204.78125 277.75 204.78125 C 276.875 204.78125 276.066406 204.457031 275.324219 203.808594 C 275.03125 203.5625 274.796875 203.1875 274.609375 202.683594 C 274.4375 202.230469 274.351563 201.789063 274.351563 201.359375 C 274.351563 200.347656 274.660156 199.527344 275.285156 198.902344 C 275.910156 198.273438 276.726563 197.957031 277.734375 197.957031 C 278.675781 197.957031 279.464844 198.40625 280.101563 199.300781 C 280.789063 198.40625 281.535156 197.957031 282.328125 197.957031 C 282.769531 197.957031 283.191406 198.15625 283.605469 198.554688 L 283.605469 195.792969 L 273.496094 195.792969 L 273.496094 194.152344 L 286.53125 194.152344 L 286.53125 195.792969 L 285.472656 195.792969 "/>
<path style=" stroke:none;fill-rule:nonzero;fill:rgb(100%,100%,100%);fill-opacity:1;" d="M 299.605469 197.816406 C 299.261719 197.933594 298.886719 198.066406 298.488281 198.222656 C 297.902344 198.480469 296.835938 198.949219 295.289063 199.621094 L 294.929688 199.777344 C 296.410156 200.292969 297.820313 201.058594 299.167969 202.070313 C 299.339844 202.199219 299.488281 202.308594 299.605469 202.398438 Z M 299.5 195.792969 L 291.074219 195.792969 L 291.074219 194.152344 L 302.738281 194.152344 L 302.738281 195.792969 L 301.445313 195.792969 L 301.445313 205.144531 L 299.792969 205.144531 C 299.632813 204.664063 298.824219 203.917969 297.363281 202.910156 C 296.765625 202.5 295.945313 202.097656 294.894531 201.710938 C 293.78125 201.292969 292.894531 201.089844 292.230469 201.089844 L 291.730469 199.226563 C 292.167969 198.875 293.375 198.273438 295.347656 197.421875 C 296.183594 197.058594 297.566406 196.515625 299.5 195.792969 "/>
<path style=" stroke:none;fill-rule:nonzero;fill:rgb(100%,100%,100%);fill-opacity:1;" d="M 305.875 195.792969 C 305.28125 196.609375 304.988281 197.285156 304.988281 197.816406 C 304.988281 198.0625 305.289063 199.050781 305.894531 200.777344 C 306.207031 201.648438 306.367188 202.367188 306.367188 202.941406 C 306.367188 204.03125 305.757813 204.789063 304.539063 205.21875 C 304.167969 205.363281 303.507813 205.476563 302.554688 205.570313 L 302.804688 203.953125 C 303.910156 203.71875 304.464844 203.332031 304.464844 202.785156 C 304.464844 202.277344 304.234375 201.5 303.773438 200.445313 C 303.3125 199.394531 303.085938 198.621094 303.085938 198.128906 C 303.085938 197.492188 303.351563 196.714844 303.882813 195.792969 L 301.9375 195.792969 L 301.9375 194.152344 L 307.152344 194.152344 L 307.152344 195.792969 L 305.875 195.792969 "/>
<path style=" stroke:none;fill-rule:nonzero;fill:rgb(100%,100%,100%);fill-opacity:1;" d="M 309.875 195.792969 L 309.875 205.144531 L 308.003906 205.144531 L 308.003906 195.792969 L 306.628906 195.792969 L 306.628906 194.152344 L 311.121094 194.152344 L 311.121094 195.792969 L 309.875 195.792969 "/>
<path style=" stroke:none;fill-rule:nonzero;fill:rgb(100%,100%,100%);fill-opacity:1;" d="M 314.582031 196.417969 C 314.394531 196.289063 314.207031 196.234375 314.019531 196.261719 C 313.3125 196.378906 312.960938 196.726563 312.960938 197.308594 C 312.960938 197.609375 313.078125 197.882813 313.3125 198.136719 C 313.546875 198.386719 313.808594 198.515625 314.101563 198.515625 L 314.359375 198.476563 C 314.894531 198.308594 315.160156 197.984375 315.160156 197.503906 C 315.160156 197.050781 314.96875 196.6875 314.582031 196.417969 Z M 316.234375 206.25 C 313.863281 204.253906 312.257813 203.054688 311.40625 202.652344 L 311.429688 200.070313 C 314.6875 202.402344 316.820313 204.261719 317.824219 205.648438 L 317.824219 207.570313 Z M 314.191406 200.222656 C 313.316406 200.222656 312.613281 199.945313 312.082031 199.394531 C 311.554688 198.84375 311.289063 198.132813 311.289063 197.265625 C 311.289063 196.460938 311.558594 195.792969 312.105469 195.253906 C 312.644531 194.714844 313.320313 194.445313 314.132813 194.445313 C 315.230469 194.445313 316.023438 194.996094 316.515625 196.097656 C 316.726563 196.566406 316.835938 197.027344 316.835938 197.480469 C 316.835938 198.320313 316.605469 198.992188 316.148438 199.484375 C 315.691406 199.976563 315.039063 200.222656 314.191406 200.222656 "/>
<path style=" stroke:none;fill-rule:nonzero;fill:rgb(100%,100%,100%);fill-opacity:1;" d="M 329.585938 193.054688 C 327.40625 191.6875 325.625 191 324.238281 191 C 322.601563 191 321.398438 191.519531 320.632813 192.554688 C 320.367188 192.917969 320.222656 193.453125 320.195313 194.152344 L 321.507813 194.152344 L 321.507813 195.792969 L 320.195313 195.792969 L 320.195313 205.144531 L 318.292969 205.144531 L 318.292969 195.792969 L 317.046875 195.792969 L 317.046875 194.152344 L 318.292969 194.152344 C 318.332031 192.824219 318.769531 191.746094 319.605469 190.917969 C 320.4375 190.09375 321.570313 189.585938 323.003906 189.390625 C 323.148438 189.378906 323.429688 189.347656 323.839844 189.292969 L 324.234375 189.292969 C 325.375 189.292969 326.507813 189.539063 327.636719 190.03125 C 328.246094 190.316406 329.246094 190.882813 330.636719 191.738281 L 329.585938 193.054688 "/>
<path style=" stroke:none;fill-rule:nonzero;fill:rgb(100%,100%,100%);fill-opacity:1;" d="M 326.164063 197.953125 C 325.859375 198.183594 325.394531 198.496094 324.769531 198.882813 C 324.613281 198.949219 324.429688 199.082031 324.226563 199.28125 C 324.019531 199.484375 323.824219 199.667969 323.636719 199.835938 C 323.835938 200.015625 324.152344 200.269531 324.59375 200.59375 C 325.003906 201.058594 325.527344 201.636719 326.164063 202.320313 Z M 328.035156 195.792969 L 328.035156 195.851563 C 328.816406 195.890625 329.632813 196.136719 330.480469 196.589844 C 331.671875 197.242188 332.269531 198.125 332.269531 199.242188 C 332.269531 199.894531 332.070313 200.457031 331.671875 200.929688 C 331.269531 201.402344 330.75 201.714844 330.105469 201.863281 C 329.460938 202.015625 328.914063 202.035156 328.460938 201.933594 L 328.460938 200.164063 C 328.675781 200.191406 328.871094 200.207031 329.058594 200.207031 C 329.996094 200.207031 330.464844 199.867188 330.464844 199.195313 C 330.464844 198.390625 329.652344 197.886719 328.035156 197.679688 L 328.035156 205.144531 L 326.386719 205.144531 C 326.117188 204.625 325.855469 204.226563 325.589844 203.941406 C 325.496094 203.835938 325.257813 203.527344 324.871094 203.007813 C 324.753906 202.839844 324.535156 202.628906 324.21875 202.367188 C 323.898438 202.109375 323.679688 201.898438 323.5625 201.730469 C 323.507813 201.652344 323.359375 201.566406 323.121094 201.476563 C 322.3125 201.191406 321.65625 201.046875 321.152344 201.046875 L 320.65625 199.1875 C 321.070313 198.890625 321.996094 198.332031 323.441406 197.519531 C 323.546875 197.441406 323.988281 197.183594 324.765625 196.742188 C 325.042969 196.574219 325.511719 196.300781 326.164063 195.925781 L 326.164063 195.792969 L 320.257813 195.792969 L 320.257813 194.152344 L 333.097656 194.152344 L 333.097656 195.792969 L 328.035156 195.792969 "/>
</g>
</svg>
